<?xml version="1.0" encoding="iso-8859-1"?>
<!-- Generator: Adobe Illustrator 19.0.0, SVG Export Plug-In . SVG Version: 6.00 Build 0)  -->
<svg version="1.1" id="Layer_1" xmlns="http://www.w3.org/2000/svg" xmlns:xlink="http://www.w3.org/1999/xlink" x="0px" y="0px"
	 viewBox="0 0 512 512" style="enable-background:new 0 0 512 512;" xml:space="preserve">
<path style="fill:#802812;" d="M380.168,248.669c-17.108,0-33.858-4.799-48.439-13.877c-20.807-12.955-35.322-33.238-40.874-57.112
	c-5.552-23.874-1.474-48.481,11.483-69.287c14.443-23.194,41.554-40.799,80.583-52.329c27.316-8.069,50.831-10.176,51.819-10.261
	l15.638-1.356l5.564,14.675c0.353,0.93,8.69,23.1,13.43,51.214c6.778,40.218,2.996,72.204-11.24,95.066
	C441.262,232.493,412.116,248.669,380.168,248.669z"/>
<path style="fill:#401409;" d="M422.144,89.388c-27.187,4.793-69.614,16.932-84.566,40.948c-7.096,11.394-9.328,24.869-6.288,37.942
	c3.039,13.073,10.987,24.18,22.383,31.275c7.989,4.975,17.151,7.604,26.495,7.604c17.512,0,33.482-8.859,42.723-23.697
	C437.499,160.001,429.585,115.778,422.144,89.388z"/>
<path style="fill:#BF3C1A;" d="M131.834,248.669c0,0-0.004,0-0.007,0c-31.947-0.001-61.091-16.176-77.961-43.27
	c-14.236-22.861-18.018-54.848-11.24-95.066c4.739-28.113,13.077-50.284,13.43-51.214l5.564-14.675l15.638,1.356
	c0.988,0.086,24.503,2.192,51.819,10.261c39.03,11.53,66.142,29.137,80.583,52.329c12.955,20.807,17.033,45.413,11.483,69.287
	c-5.552,23.874-20.068,44.157-40.874,57.112C165.689,243.87,148.941,248.669,131.834,248.669z"/>
<path style="fill:#401409;" d="M89.802,89.46c-7.611,26.731-15.384,70.41-0.695,93.999c9.24,14.837,25.211,23.696,42.724,23.697
	h0.003c9.342,0,18.503-2.628,26.493-7.604c11.394-7.095,19.344-18.201,22.383-31.275c3.04-13.073,0.808-26.548-6.288-37.942
	c-8.705-13.982-28.219-25.828-56.431-34.26C107.53,92.948,97.601,90.839,89.802,89.46z"/>
<path style="fill:#FFD6A0;" d="M270.3,169.502H83.95c-3.623,4.095-15.886,8.27-19.28,12.514C23.939,232.965,0,293.98,0,348.242
	v13.901l256,105.411l14.3-5.888V169.502z"/>
<path style="fill:#FFC170;" d="M432.778,169.502H256c0,120.808,0,298.053,0,298.053l256-105.411v-13.901
	c0-54.03-23.735-114.753-64.145-165.568C444.297,178.202,436.588,173.808,432.778,169.502z"/>
<g>
	<circle style="fill:#401409;" cx="359.784" cy="300.958" r="20.757"/>
	<circle style="fill:#401409;" cx="152.216" cy="300.958" r="20.757"/>
	<path style="fill:#401409;" d="M269.838,349.394H256h-13.838c-7.643,0-13.838,6.195-13.838,13.838
		c0,13.838,27.676,27.676,27.676,27.676s27.676-13.838,27.676-27.676C283.676,355.587,277.48,349.394,269.838,349.394z"/>
</g>
<path style="fill:#FF5023;" d="M110.703,176.421c62.449,0,116.949,34.658,145.297,85.743c28.348-51.085,63.225-183.76,0-183.76
	s-128.762,32.789-179.807,89.96c-4.319,4.836-8.473,9.789-12.471,14.836C78.625,178.795,94.391,176.421,110.703,176.421z"/>
<path style="fill:#802812;" d="M435.809,168.363C384.762,111.193,319.225,78.405,256,78.405v183.76
	c28.348-51.085,82.849-85.743,145.297-85.743c16.312,0,32.077,2.376,46.981,6.778C444.282,178.153,440.126,173.201,435.809,168.363z
	"/>
<g>
</g>
<g>
</g>
<g>
</g>
<g>
</g>
<g>
</g>
<g>
</g>
<g>
</g>
<g>
</g>
<g>
</g>
<g>
</g>
<g>
</g>
<g>
</g>
<g>
</g>
<g>
</g>
<g>
</g>
</svg>
